<mxfile host="65bd71144e">
    <diagram name="Page-1" id="uUqCSn_Lq-EMmtzQwjFs">
        <mxGraphModel dx="866" dy="787" grid="1" gridSize="10" guides="1" tooltips="1" connect="1" arrows="1" fold="1" page="1" pageScale="1" pageWidth="3300" pageHeight="4681" math="0" shadow="0">
            <root>
                <mxCell id="0"/>
                <mxCell id="1" parent="0"/>
                <mxCell id="7fdUrXc_mTo3HhQvjROb-1" value="" style="swimlane;startSize=0;" parent="1" vertex="1">
                    <mxGeometry x="500" y="1160" width="40" height="40" as="geometry"/>
                </mxCell>
                <mxCell id="7fdUrXc_mTo3HhQvjROb-2" value="" style="swimlane;startSize=0;" parent="1" vertex="1">
                    <mxGeometry x="500" y="1160" width="40" height="40" as="geometry"/>
                </mxCell>
                <mxCell id="7fdUrXc_mTo3HhQvjROb-7" value="" style="swimlane;startSize=0;" parent="1" vertex="1">
                    <mxGeometry x="600" y="1160" width="40" height="40" as="geometry"/>
                </mxCell>
                <mxCell id="7fdUrXc_mTo3HhQvjROb-8" value="" style="swimlane;startSize=0;" parent="1" vertex="1">
                    <mxGeometry x="550" y="1160" width="40" height="40" as="geometry"/>
                </mxCell>
                <mxCell id="7fdUrXc_mTo3HhQvjROb-14" value="" style="swimlane;startSize=0;" parent="1" vertex="1">
                    <mxGeometry x="500" y="1160" width="40" height="40" as="geometry"/>
                </mxCell>
                <mxCell id="7fdUrXc_mTo3HhQvjROb-15" value="" style="swimlane;startSize=0;" parent="1" vertex="1">
                    <mxGeometry x="500" y="1160" width="40" height="40" as="geometry"/>
                </mxCell>
                <mxCell id="7fdUrXc_mTo3HhQvjROb-16" value="" style="swimlane;startSize=0;" parent="1" vertex="1">
                    <mxGeometry x="600" y="1160" width="40" height="40" as="geometry"/>
                </mxCell>
                <mxCell id="7fdUrXc_mTo3HhQvjROb-17" value="" style="swimlane;startSize=0;" parent="1" vertex="1">
                    <mxGeometry x="550" y="1160" width="40" height="40" as="geometry"/>
                </mxCell>
                <mxCell id="7fdUrXc_mTo3HhQvjROb-18" value="" style="swimlane;startSize=0;" parent="1" vertex="1">
                    <mxGeometry x="650" y="1160" width="40" height="40" as="geometry"/>
                </mxCell>
                <mxCell id="7fdUrXc_mTo3HhQvjROb-19" value="" style="swimlane;startSize=0;" parent="1" vertex="1">
                    <mxGeometry x="650" y="1160" width="40" height="40" as="geometry"/>
                </mxCell>
                <mxCell id="7fdUrXc_mTo3HhQvjROb-20" value="" style="swimlane;startSize=0;" parent="1" vertex="1">
                    <mxGeometry x="750" y="1160" width="40" height="40" as="geometry"/>
                </mxCell>
                <mxCell id="7fdUrXc_mTo3HhQvjROb-21" value="" style="swimlane;startSize=0;" parent="1" vertex="1">
                    <mxGeometry x="700" y="1160" width="40" height="40" as="geometry"/>
                </mxCell>
                <mxCell id="7fdUrXc_mTo3HhQvjROb-24" value="" style="swimlane;startSize=0;" parent="1" vertex="1">
                    <mxGeometry x="500" y="1160" width="40" height="40" as="geometry"/>
                </mxCell>
                <mxCell id="7fdUrXc_mTo3HhQvjROb-25" value="" style="swimlane;startSize=0;" parent="1" vertex="1">
                    <mxGeometry x="500" y="1160" width="40" height="40" as="geometry"/>
                </mxCell>
                <mxCell id="7fdUrXc_mTo3HhQvjROb-26" value="" style="swimlane;startSize=0;" parent="1" vertex="1">
                    <mxGeometry x="600" y="1160" width="40" height="40" as="geometry"/>
                </mxCell>
                <mxCell id="7fdUrXc_mTo3HhQvjROb-27" value="" style="swimlane;startSize=0;" parent="1" vertex="1">
                    <mxGeometry x="550" y="1160" width="40" height="40" as="geometry"/>
                </mxCell>
                <mxCell id="7fdUrXc_mTo3HhQvjROb-28" value="" style="swimlane;startSize=0;" parent="1" vertex="1">
                    <mxGeometry x="500" y="1160" width="40" height="40" as="geometry"/>
                </mxCell>
                <mxCell id="7fdUrXc_mTo3HhQvjROb-29" value="" style="swimlane;startSize=0;" parent="1" vertex="1">
                    <mxGeometry x="500" y="1160" width="40" height="40" as="geometry"/>
                </mxCell>
                <mxCell id="7fdUrXc_mTo3HhQvjROb-30" value="" style="swimlane;startSize=0;" parent="1" vertex="1">
                    <mxGeometry x="600" y="1160" width="40" height="40" as="geometry"/>
                </mxCell>
                <mxCell id="7fdUrXc_mTo3HhQvjROb-31" value="" style="swimlane;startSize=0;" parent="1" vertex="1">
                    <mxGeometry x="550" y="1160" width="40" height="40" as="geometry"/>
                </mxCell>
                <mxCell id="7fdUrXc_mTo3HhQvjROb-32" value="" style="swimlane;startSize=0;" parent="1" vertex="1">
                    <mxGeometry x="650" y="1160" width="40" height="40" as="geometry"/>
                </mxCell>
                <mxCell id="7fdUrXc_mTo3HhQvjROb-33" value="" style="swimlane;startSize=0;" parent="1" vertex="1">
                    <mxGeometry x="650" y="1160" width="40" height="40" as="geometry"/>
                </mxCell>
                <mxCell id="7fdUrXc_mTo3HhQvjROb-34" value="" style="swimlane;startSize=0;" parent="1" vertex="1">
                    <mxGeometry x="750" y="1160" width="40" height="40" as="geometry"/>
                </mxCell>
                <mxCell id="7fdUrXc_mTo3HhQvjROb-35" value="" style="swimlane;startSize=0;" parent="1" vertex="1">
                    <mxGeometry x="700" y="1160" width="40" height="40" as="geometry"/>
                </mxCell>
                <mxCell id="7fdUrXc_mTo3HhQvjROb-37" value="" style="swimlane;startSize=0;" parent="1" vertex="1">
                    <mxGeometry x="800" y="1160" width="40" height="40" as="geometry"/>
                </mxCell>
                <mxCell id="7fdUrXc_mTo3HhQvjROb-38" value="" style="swimlane;startSize=0;" parent="1" vertex="1">
                    <mxGeometry x="500" y="1220" width="40" height="40" as="geometry"/>
                </mxCell>
                <mxCell id="7fdUrXc_mTo3HhQvjROb-39" value="" style="swimlane;startSize=0;" parent="1" vertex="1">
                    <mxGeometry x="500" y="1220" width="40" height="40" as="geometry"/>
                </mxCell>
                <mxCell id="7fdUrXc_mTo3HhQvjROb-40" value="" style="swimlane;startSize=0;" parent="1" vertex="1">
                    <mxGeometry x="600" y="1220" width="40" height="40" as="geometry"/>
                </mxCell>
                <mxCell id="7fdUrXc_mTo3HhQvjROb-41" value="" style="swimlane;startSize=0;" parent="1" vertex="1">
                    <mxGeometry x="550" y="1220" width="40" height="40" as="geometry"/>
                </mxCell>
                <mxCell id="7fdUrXc_mTo3HhQvjROb-42" value="" style="swimlane;startSize=0;" parent="1" vertex="1">
                    <mxGeometry x="500" y="1220" width="40" height="40" as="geometry"/>
                </mxCell>
                <mxCell id="7fdUrXc_mTo3HhQvjROb-43" value="" style="swimlane;startSize=0;" parent="1" vertex="1">
                    <mxGeometry x="500" y="1220" width="40" height="40" as="geometry"/>
                </mxCell>
                <mxCell id="7fdUrXc_mTo3HhQvjROb-44" value="" style="swimlane;startSize=0;" parent="1" vertex="1">
                    <mxGeometry x="600" y="1220" width="40" height="40" as="geometry"/>
                </mxCell>
                <mxCell id="7fdUrXc_mTo3HhQvjROb-45" value="" style="swimlane;startSize=0;" parent="1" vertex="1">
                    <mxGeometry x="550" y="1220" width="40" height="40" as="geometry"/>
                </mxCell>
                <mxCell id="7fdUrXc_mTo3HhQvjROb-46" value="" style="swimlane;startSize=0;" parent="1" vertex="1">
                    <mxGeometry x="650" y="1220" width="40" height="40" as="geometry"/>
                </mxCell>
                <mxCell id="7fdUrXc_mTo3HhQvjROb-47" value="" style="swimlane;startSize=0;" parent="1" vertex="1">
                    <mxGeometry x="650" y="1220" width="40" height="40" as="geometry"/>
                </mxCell>
                <mxCell id="7fdUrXc_mTo3HhQvjROb-48" value="" style="swimlane;startSize=0;" parent="1" vertex="1">
                    <mxGeometry x="750" y="1220" width="40" height="40" as="geometry"/>
                </mxCell>
                <mxCell id="7fdUrXc_mTo3HhQvjROb-49" value="" style="swimlane;startSize=0;" parent="1" vertex="1">
                    <mxGeometry x="700" y="1220" width="40" height="40" as="geometry"/>
                </mxCell>
                <mxCell id="7fdUrXc_mTo3HhQvjROb-50" value="" style="swimlane;startSize=0;" parent="1" vertex="1">
                    <mxGeometry x="500" y="1220" width="40" height="40" as="geometry"/>
                </mxCell>
                <mxCell id="7fdUrXc_mTo3HhQvjROb-51" value="" style="swimlane;startSize=0;" parent="1" vertex="1">
                    <mxGeometry x="500" y="1220" width="40" height="40" as="geometry"/>
                </mxCell>
                <mxCell id="7fdUrXc_mTo3HhQvjROb-52" value="" style="swimlane;startSize=0;" parent="1" vertex="1">
                    <mxGeometry x="600" y="1220" width="40" height="40" as="geometry"/>
                </mxCell>
                <mxCell id="7fdUrXc_mTo3HhQvjROb-53" value="" style="swimlane;startSize=0;" parent="1" vertex="1">
                    <mxGeometry x="550" y="1220" width="40" height="40" as="geometry"/>
                </mxCell>
                <mxCell id="7fdUrXc_mTo3HhQvjROb-54" value="" style="swimlane;startSize=0;" parent="1" vertex="1">
                    <mxGeometry x="500" y="1220" width="40" height="40" as="geometry"/>
                </mxCell>
                <mxCell id="7fdUrXc_mTo3HhQvjROb-55" value="" style="swimlane;startSize=0;" parent="1" vertex="1">
                    <mxGeometry x="500" y="1220" width="40" height="40" as="geometry"/>
                </mxCell>
                <mxCell id="7fdUrXc_mTo3HhQvjROb-56" value="" style="swimlane;startSize=0;" parent="1" vertex="1">
                    <mxGeometry x="600" y="1220" width="40" height="40" as="geometry"/>
                </mxCell>
                <mxCell id="7fdUrXc_mTo3HhQvjROb-57" value="" style="swimlane;startSize=0;" parent="1" vertex="1">
                    <mxGeometry x="550" y="1220" width="40" height="40" as="geometry"/>
                </mxCell>
                <mxCell id="7fdUrXc_mTo3HhQvjROb-58" value="" style="swimlane;startSize=0;" parent="1" vertex="1">
                    <mxGeometry x="650" y="1220" width="40" height="40" as="geometry"/>
                </mxCell>
                <mxCell id="7fdUrXc_mTo3HhQvjROb-59" value="" style="swimlane;startSize=0;" parent="1" vertex="1">
                    <mxGeometry x="650" y="1220" width="40" height="40" as="geometry"/>
                </mxCell>
                <mxCell id="7fdUrXc_mTo3HhQvjROb-60" value="" style="swimlane;startSize=0;" parent="1" vertex="1">
                    <mxGeometry x="750" y="1220" width="40" height="40" as="geometry"/>
                </mxCell>
                <mxCell id="7fdUrXc_mTo3HhQvjROb-61" value="" style="swimlane;startSize=0;" parent="1" vertex="1">
                    <mxGeometry x="700" y="1220" width="40" height="40" as="geometry"/>
                </mxCell>
                <mxCell id="7fdUrXc_mTo3HhQvjROb-62" value="" style="swimlane;startSize=0;" parent="1" vertex="1">
                    <mxGeometry x="800" y="1220" width="40" height="40" as="geometry"/>
                </mxCell>
                <mxCell id="7fdUrXc_mTo3HhQvjROb-63" value="&lt;font style=&quot;font-size: 72px;&quot;&gt;Worbble&lt;/font&gt;" style="text;html=1;align=center;verticalAlign=middle;whiteSpace=wrap;rounded=0;" parent="1" vertex="1">
                    <mxGeometry x="455" y="1020" width="420" height="80" as="geometry"/>
                </mxCell>
                <mxCell id="7fdUrXc_mTo3HhQvjROb-65" value="" style="swimlane;startSize=0;" parent="1" vertex="1">
                    <mxGeometry x="500" y="1280" width="40" height="40" as="geometry"/>
                </mxCell>
                <mxCell id="7fdUrXc_mTo3HhQvjROb-66" value="" style="swimlane;startSize=0;" parent="1" vertex="1">
                    <mxGeometry x="500" y="1280" width="40" height="40" as="geometry"/>
                </mxCell>
                <mxCell id="7fdUrXc_mTo3HhQvjROb-67" value="" style="swimlane;startSize=0;" parent="1" vertex="1">
                    <mxGeometry x="600" y="1280" width="40" height="40" as="geometry"/>
                </mxCell>
                <mxCell id="7fdUrXc_mTo3HhQvjROb-68" value="" style="swimlane;startSize=0;" parent="1" vertex="1">
                    <mxGeometry x="550" y="1280" width="40" height="40" as="geometry"/>
                </mxCell>
                <mxCell id="7fdUrXc_mTo3HhQvjROb-69" value="" style="swimlane;startSize=0;" parent="1" vertex="1">
                    <mxGeometry x="500" y="1280" width="40" height="40" as="geometry"/>
                </mxCell>
                <mxCell id="7fdUrXc_mTo3HhQvjROb-70" value="" style="swimlane;startSize=0;" parent="1" vertex="1">
                    <mxGeometry x="500" y="1280" width="40" height="40" as="geometry"/>
                </mxCell>
                <mxCell id="7fdUrXc_mTo3HhQvjROb-71" value="" style="swimlane;startSize=0;" parent="1" vertex="1">
                    <mxGeometry x="600" y="1280" width="40" height="40" as="geometry"/>
                </mxCell>
                <mxCell id="7fdUrXc_mTo3HhQvjROb-72" value="" style="swimlane;startSize=0;" parent="1" vertex="1">
                    <mxGeometry x="550" y="1280" width="40" height="40" as="geometry"/>
                </mxCell>
                <mxCell id="7fdUrXc_mTo3HhQvjROb-73" value="" style="swimlane;startSize=0;" parent="1" vertex="1">
                    <mxGeometry x="650" y="1280" width="40" height="40" as="geometry"/>
                </mxCell>
                <mxCell id="7fdUrXc_mTo3HhQvjROb-74" value="" style="swimlane;startSize=0;" parent="1" vertex="1">
                    <mxGeometry x="650" y="1280" width="40" height="40" as="geometry"/>
                </mxCell>
                <mxCell id="7fdUrXc_mTo3HhQvjROb-75" value="" style="swimlane;startSize=0;" parent="1" vertex="1">
                    <mxGeometry x="750" y="1280" width="40" height="40" as="geometry"/>
                </mxCell>
                <mxCell id="7fdUrXc_mTo3HhQvjROb-76" value="" style="swimlane;startSize=0;" parent="1" vertex="1">
                    <mxGeometry x="700" y="1280" width="40" height="40" as="geometry"/>
                </mxCell>
                <mxCell id="7fdUrXc_mTo3HhQvjROb-77" value="" style="swimlane;startSize=0;" parent="1" vertex="1">
                    <mxGeometry x="500" y="1280" width="40" height="40" as="geometry"/>
                </mxCell>
                <mxCell id="7fdUrXc_mTo3HhQvjROb-78" value="" style="swimlane;startSize=0;" parent="1" vertex="1">
                    <mxGeometry x="500" y="1280" width="40" height="40" as="geometry"/>
                </mxCell>
                <mxCell id="7fdUrXc_mTo3HhQvjROb-79" value="" style="swimlane;startSize=0;" parent="1" vertex="1">
                    <mxGeometry x="600" y="1280" width="40" height="40" as="geometry"/>
                </mxCell>
                <mxCell id="7fdUrXc_mTo3HhQvjROb-80" value="" style="swimlane;startSize=0;" parent="1" vertex="1">
                    <mxGeometry x="550" y="1280" width="40" height="40" as="geometry"/>
                </mxCell>
                <mxCell id="7fdUrXc_mTo3HhQvjROb-81" value="" style="swimlane;startSize=0;" parent="1" vertex="1">
                    <mxGeometry x="500" y="1280" width="40" height="40" as="geometry"/>
                </mxCell>
                <mxCell id="7fdUrXc_mTo3HhQvjROb-82" value="" style="swimlane;startSize=0;" parent="1" vertex="1">
                    <mxGeometry x="500" y="1280" width="40" height="40" as="geometry"/>
                </mxCell>
                <mxCell id="7fdUrXc_mTo3HhQvjROb-83" value="" style="swimlane;startSize=0;" parent="1" vertex="1">
                    <mxGeometry x="600" y="1280" width="40" height="40" as="geometry"/>
                </mxCell>
                <mxCell id="7fdUrXc_mTo3HhQvjROb-84" value="" style="swimlane;startSize=0;" parent="1" vertex="1">
                    <mxGeometry x="550" y="1280" width="40" height="40" as="geometry"/>
                </mxCell>
                <mxCell id="7fdUrXc_mTo3HhQvjROb-85" value="" style="swimlane;startSize=0;" parent="1" vertex="1">
                    <mxGeometry x="650" y="1280" width="40" height="40" as="geometry"/>
                </mxCell>
                <mxCell id="7fdUrXc_mTo3HhQvjROb-86" value="" style="swimlane;startSize=0;" parent="1" vertex="1">
                    <mxGeometry x="650" y="1280" width="40" height="40" as="geometry"/>
                </mxCell>
                <mxCell id="7fdUrXc_mTo3HhQvjROb-87" value="" style="swimlane;startSize=0;" parent="1" vertex="1">
                    <mxGeometry x="750" y="1280" width="40" height="40" as="geometry"/>
                </mxCell>
                <mxCell id="7fdUrXc_mTo3HhQvjROb-88" value="" style="swimlane;startSize=0;" parent="1" vertex="1">
                    <mxGeometry x="700" y="1280" width="40" height="40" as="geometry"/>
                </mxCell>
                <mxCell id="7fdUrXc_mTo3HhQvjROb-89" value="" style="swimlane;startSize=0;" parent="1" vertex="1">
                    <mxGeometry x="800" y="1280" width="40" height="40" as="geometry"/>
                </mxCell>
                <mxCell id="7fdUrXc_mTo3HhQvjROb-90" value="" style="swimlane;startSize=0;" parent="1" vertex="1">
                    <mxGeometry x="500" y="1340" width="40" height="40" as="geometry"/>
                </mxCell>
                <mxCell id="7fdUrXc_mTo3HhQvjROb-91" value="" style="swimlane;startSize=0;" parent="1" vertex="1">
                    <mxGeometry x="500" y="1340" width="40" height="40" as="geometry"/>
                </mxCell>
                <mxCell id="7fdUrXc_mTo3HhQvjROb-92" value="" style="swimlane;startSize=0;" parent="1" vertex="1">
                    <mxGeometry x="600" y="1340" width="40" height="40" as="geometry"/>
                </mxCell>
                <mxCell id="7fdUrXc_mTo3HhQvjROb-93" value="" style="swimlane;startSize=0;" parent="1" vertex="1">
                    <mxGeometry x="550" y="1340" width="40" height="40" as="geometry"/>
                </mxCell>
                <mxCell id="7fdUrXc_mTo3HhQvjROb-94" value="" style="swimlane;startSize=0;" parent="1" vertex="1">
                    <mxGeometry x="500" y="1340" width="40" height="40" as="geometry"/>
                </mxCell>
                <mxCell id="7fdUrXc_mTo3HhQvjROb-95" value="" style="swimlane;startSize=0;" parent="1" vertex="1">
                    <mxGeometry x="500" y="1340" width="40" height="40" as="geometry"/>
                </mxCell>
                <mxCell id="7fdUrXc_mTo3HhQvjROb-96" value="" style="swimlane;startSize=0;" parent="1" vertex="1">
                    <mxGeometry x="600" y="1340" width="40" height="40" as="geometry"/>
                </mxCell>
                <mxCell id="7fdUrXc_mTo3HhQvjROb-97" value="" style="swimlane;startSize=0;" parent="1" vertex="1">
                    <mxGeometry x="550" y="1340" width="40" height="40" as="geometry"/>
                </mxCell>
                <mxCell id="7fdUrXc_mTo3HhQvjROb-98" value="" style="swimlane;startSize=0;" parent="1" vertex="1">
                    <mxGeometry x="650" y="1340" width="40" height="40" as="geometry"/>
                </mxCell>
                <mxCell id="7fdUrXc_mTo3HhQvjROb-99" value="" style="swimlane;startSize=0;" parent="1" vertex="1">
                    <mxGeometry x="650" y="1340" width="40" height="40" as="geometry"/>
                </mxCell>
                <mxCell id="7fdUrXc_mTo3HhQvjROb-100" value="" style="swimlane;startSize=0;" parent="1" vertex="1">
                    <mxGeometry x="750" y="1340" width="40" height="40" as="geometry"/>
                </mxCell>
                <mxCell id="7fdUrXc_mTo3HhQvjROb-101" value="" style="swimlane;startSize=0;" parent="1" vertex="1">
                    <mxGeometry x="700" y="1340" width="40" height="40" as="geometry"/>
                </mxCell>
                <mxCell id="7fdUrXc_mTo3HhQvjROb-102" value="" style="swimlane;startSize=0;" parent="1" vertex="1">
                    <mxGeometry x="500" y="1340" width="40" height="40" as="geometry"/>
                </mxCell>
                <mxCell id="7fdUrXc_mTo3HhQvjROb-103" value="" style="swimlane;startSize=0;" parent="1" vertex="1">
                    <mxGeometry x="500" y="1340" width="40" height="40" as="geometry"/>
                </mxCell>
                <mxCell id="7fdUrXc_mTo3HhQvjROb-104" value="" style="swimlane;startSize=0;" parent="1" vertex="1">
                    <mxGeometry x="600" y="1340" width="40" height="40" as="geometry"/>
                </mxCell>
                <mxCell id="7fdUrXc_mTo3HhQvjROb-105" value="" style="swimlane;startSize=0;" parent="1" vertex="1">
                    <mxGeometry x="550" y="1340" width="40" height="40" as="geometry"/>
                </mxCell>
                <mxCell id="7fdUrXc_mTo3HhQvjROb-106" value="" style="swimlane;startSize=0;" parent="1" vertex="1">
                    <mxGeometry x="500" y="1340" width="40" height="40" as="geometry"/>
                </mxCell>
                <mxCell id="7fdUrXc_mTo3HhQvjROb-107" value="" style="swimlane;startSize=0;" parent="1" vertex="1">
                    <mxGeometry x="500" y="1340" width="40" height="40" as="geometry"/>
                </mxCell>
                <mxCell id="7fdUrXc_mTo3HhQvjROb-108" value="" style="swimlane;startSize=0;" parent="1" vertex="1">
                    <mxGeometry x="600" y="1340" width="40" height="40" as="geometry"/>
                </mxCell>
                <mxCell id="7fdUrXc_mTo3HhQvjROb-109" value="" style="swimlane;startSize=0;" parent="1" vertex="1">
                    <mxGeometry x="550" y="1340" width="40" height="40" as="geometry"/>
                </mxCell>
                <mxCell id="7fdUrXc_mTo3HhQvjROb-110" value="" style="swimlane;startSize=0;" parent="1" vertex="1">
                    <mxGeometry x="650" y="1340" width="40" height="40" as="geometry"/>
                </mxCell>
                <mxCell id="7fdUrXc_mTo3HhQvjROb-111" value="" style="swimlane;startSize=0;" parent="1" vertex="1">
                    <mxGeometry x="650" y="1340" width="40" height="40" as="geometry"/>
                </mxCell>
                <mxCell id="7fdUrXc_mTo3HhQvjROb-112" value="" style="swimlane;startSize=0;" parent="1" vertex="1">
                    <mxGeometry x="750" y="1340" width="40" height="40" as="geometry"/>
                </mxCell>
                <mxCell id="7fdUrXc_mTo3HhQvjROb-113" value="" style="swimlane;startSize=0;" parent="1" vertex="1">
                    <mxGeometry x="700" y="1340" width="40" height="40" as="geometry"/>
                </mxCell>
                <mxCell id="7fdUrXc_mTo3HhQvjROb-114" value="" style="swimlane;startSize=0;" parent="1" vertex="1">
                    <mxGeometry x="800" y="1340" width="40" height="40" as="geometry"/>
                </mxCell>
                <mxCell id="7fdUrXc_mTo3HhQvjROb-418" value="" style="swimlane;startSize=0;" parent="1" vertex="1">
                    <mxGeometry x="500" y="1160" width="40" height="40" as="geometry"/>
                </mxCell>
                <mxCell id="7fdUrXc_mTo3HhQvjROb-419" value="" style="swimlane;startSize=0;" parent="1" vertex="1">
                    <mxGeometry x="500" y="1160" width="40" height="40" as="geometry"/>
                </mxCell>
                <mxCell id="7fdUrXc_mTo3HhQvjROb-420" value="" style="swimlane;startSize=0;" parent="1" vertex="1">
                    <mxGeometry x="600" y="1160" width="40" height="40" as="geometry"/>
                </mxCell>
                <mxCell id="7fdUrXc_mTo3HhQvjROb-421" value="" style="swimlane;startSize=0;" parent="1" vertex="1">
                    <mxGeometry x="550" y="1160" width="40" height="40" as="geometry"/>
                </mxCell>
                <mxCell id="7fdUrXc_mTo3HhQvjROb-422" value="" style="swimlane;startSize=0;" parent="1" vertex="1">
                    <mxGeometry x="500" y="1160" width="40" height="40" as="geometry"/>
                </mxCell>
                <mxCell id="7fdUrXc_mTo3HhQvjROb-423" value="" style="swimlane;startSize=0;" parent="1" vertex="1">
                    <mxGeometry x="500" y="1160" width="40" height="40" as="geometry"/>
                </mxCell>
                <mxCell id="7fdUrXc_mTo3HhQvjROb-424" value="" style="swimlane;startSize=0;" parent="1" vertex="1">
                    <mxGeometry x="600" y="1160" width="40" height="40" as="geometry"/>
                </mxCell>
                <mxCell id="7fdUrXc_mTo3HhQvjROb-425" value="" style="swimlane;startSize=0;" parent="1" vertex="1">
                    <mxGeometry x="550" y="1160" width="40" height="40" as="geometry"/>
                </mxCell>
                <mxCell id="7fdUrXc_mTo3HhQvjROb-426" value="" style="swimlane;startSize=0;" parent="1" vertex="1">
                    <mxGeometry x="650" y="1160" width="40" height="40" as="geometry"/>
                </mxCell>
                <mxCell id="7fdUrXc_mTo3HhQvjROb-427" value="" style="swimlane;startSize=0;" parent="1" vertex="1">
                    <mxGeometry x="650" y="1160" width="40" height="40" as="geometry"/>
                </mxCell>
                <mxCell id="7fdUrXc_mTo3HhQvjROb-428" value="" style="swimlane;startSize=0;" parent="1" vertex="1">
                    <mxGeometry x="750" y="1160" width="40" height="40" as="geometry"/>
                </mxCell>
                <mxCell id="7fdUrXc_mTo3HhQvjROb-429" value="" style="swimlane;startSize=0;" parent="1" vertex="1">
                    <mxGeometry x="700" y="1160" width="40" height="40" as="geometry"/>
                </mxCell>
                <mxCell id="7fdUrXc_mTo3HhQvjROb-430" value="" style="swimlane;startSize=0;" parent="1" vertex="1">
                    <mxGeometry x="500" y="1160" width="40" height="40" as="geometry"/>
                </mxCell>
                <mxCell id="7fdUrXc_mTo3HhQvjROb-431" value="" style="swimlane;startSize=0;" parent="1" vertex="1">
                    <mxGeometry x="500" y="1160" width="40" height="40" as="geometry"/>
                </mxCell>
                <mxCell id="7fdUrXc_mTo3HhQvjROb-432" value="" style="swimlane;startSize=0;" parent="1" vertex="1">
                    <mxGeometry x="600" y="1160" width="40" height="40" as="geometry"/>
                </mxCell>
                <mxCell id="7fdUrXc_mTo3HhQvjROb-433" value="" style="swimlane;startSize=0;" parent="1" vertex="1">
                    <mxGeometry x="550" y="1160" width="40" height="40" as="geometry"/>
                </mxCell>
                <mxCell id="7fdUrXc_mTo3HhQvjROb-434" value="" style="swimlane;startSize=0;" parent="1" vertex="1">
                    <mxGeometry x="500" y="1160" width="40" height="40" as="geometry"/>
                </mxCell>
                <mxCell id="7fdUrXc_mTo3HhQvjROb-435" value="" style="swimlane;startSize=0;" parent="1" vertex="1">
                    <mxGeometry x="500" y="1160" width="40" height="40" as="geometry"/>
                </mxCell>
                <mxCell id="7fdUrXc_mTo3HhQvjROb-436" value="" style="swimlane;startSize=0;" parent="1" vertex="1">
                    <mxGeometry x="600" y="1160" width="40" height="40" as="geometry"/>
                </mxCell>
                <mxCell id="7fdUrXc_mTo3HhQvjROb-437" value="" style="swimlane;startSize=0;" parent="1" vertex="1">
                    <mxGeometry x="550" y="1160" width="40" height="40" as="geometry"/>
                </mxCell>
                <mxCell id="7fdUrXc_mTo3HhQvjROb-438" value="" style="swimlane;startSize=0;" parent="1" vertex="1">
                    <mxGeometry x="650" y="1160" width="40" height="40" as="geometry"/>
                </mxCell>
                <mxCell id="7fdUrXc_mTo3HhQvjROb-439" value="" style="swimlane;startSize=0;" parent="1" vertex="1">
                    <mxGeometry x="650" y="1160" width="40" height="40" as="geometry"/>
                </mxCell>
                <mxCell id="7fdUrXc_mTo3HhQvjROb-440" value="" style="swimlane;startSize=0;" parent="1" vertex="1">
                    <mxGeometry x="750" y="1160" width="40" height="40" as="geometry"/>
                </mxCell>
                <mxCell id="7fdUrXc_mTo3HhQvjROb-441" value="" style="swimlane;startSize=0;" parent="1" vertex="1">
                    <mxGeometry x="700" y="1160" width="40" height="40" as="geometry"/>
                </mxCell>
                <mxCell id="7fdUrXc_mTo3HhQvjROb-442" value="" style="swimlane;startSize=0;" parent="1" vertex="1">
                    <mxGeometry x="800" y="1160" width="40" height="40" as="geometry"/>
                </mxCell>
                <mxCell id="7fdUrXc_mTo3HhQvjROb-443" value="" style="swimlane;startSize=0;" parent="1" vertex="1">
                    <mxGeometry x="500" y="1220" width="40" height="40" as="geometry"/>
                </mxCell>
                <mxCell id="7fdUrXc_mTo3HhQvjROb-444" value="" style="swimlane;startSize=0;" parent="1" vertex="1">
                    <mxGeometry x="500" y="1220" width="40" height="40" as="geometry"/>
                </mxCell>
                <mxCell id="7fdUrXc_mTo3HhQvjROb-445" value="" style="swimlane;startSize=0;" parent="1" vertex="1">
                    <mxGeometry x="600" y="1220" width="40" height="40" as="geometry"/>
                </mxCell>
                <mxCell id="7fdUrXc_mTo3HhQvjROb-446" value="" style="swimlane;startSize=0;" parent="1" vertex="1">
                    <mxGeometry x="550" y="1220" width="40" height="40" as="geometry"/>
                </mxCell>
                <mxCell id="7fdUrXc_mTo3HhQvjROb-447" value="" style="swimlane;startSize=0;" parent="1" vertex="1">
                    <mxGeometry x="500" y="1220" width="40" height="40" as="geometry"/>
                </mxCell>
                <mxCell id="7fdUrXc_mTo3HhQvjROb-448" value="" style="swimlane;startSize=0;" parent="1" vertex="1">
                    <mxGeometry x="500" y="1220" width="40" height="40" as="geometry"/>
                </mxCell>
                <mxCell id="7fdUrXc_mTo3HhQvjROb-449" value="" style="swimlane;startSize=0;" parent="1" vertex="1">
                    <mxGeometry x="600" y="1220" width="40" height="40" as="geometry"/>
                </mxCell>
                <mxCell id="7fdUrXc_mTo3HhQvjROb-450" value="" style="swimlane;startSize=0;" parent="1" vertex="1">
                    <mxGeometry x="550" y="1220" width="40" height="40" as="geometry"/>
                </mxCell>
                <mxCell id="7fdUrXc_mTo3HhQvjROb-451" value="" style="swimlane;startSize=0;" parent="1" vertex="1">
                    <mxGeometry x="650" y="1220" width="40" height="40" as="geometry"/>
                </mxCell>
                <mxCell id="7fdUrXc_mTo3HhQvjROb-452" value="" style="swimlane;startSize=0;" parent="1" vertex="1">
                    <mxGeometry x="650" y="1220" width="40" height="40" as="geometry"/>
                </mxCell>
                <mxCell id="7fdUrXc_mTo3HhQvjROb-453" value="" style="swimlane;startSize=0;" parent="1" vertex="1">
                    <mxGeometry x="750" y="1220" width="40" height="40" as="geometry"/>
                </mxCell>
                <mxCell id="7fdUrXc_mTo3HhQvjROb-454" value="" style="swimlane;startSize=0;" parent="1" vertex="1">
                    <mxGeometry x="700" y="1220" width="40" height="40" as="geometry"/>
                </mxCell>
                <mxCell id="7fdUrXc_mTo3HhQvjROb-455" value="" style="swimlane;startSize=0;" parent="1" vertex="1">
                    <mxGeometry x="500" y="1220" width="40" height="40" as="geometry"/>
                </mxCell>
                <mxCell id="7fdUrXc_mTo3HhQvjROb-456" value="" style="swimlane;startSize=0;" parent="1" vertex="1">
                    <mxGeometry x="500" y="1220" width="40" height="40" as="geometry"/>
                </mxCell>
                <mxCell id="7fdUrXc_mTo3HhQvjROb-457" value="" style="swimlane;startSize=0;" parent="1" vertex="1">
                    <mxGeometry x="600" y="1220" width="40" height="40" as="geometry"/>
                </mxCell>
                <mxCell id="7fdUrXc_mTo3HhQvjROb-458" value="" style="swimlane;startSize=0;" parent="1" vertex="1">
                    <mxGeometry x="550" y="1220" width="40" height="40" as="geometry"/>
                </mxCell>
                <mxCell id="7fdUrXc_mTo3HhQvjROb-459" value="" style="swimlane;startSize=0;" parent="1" vertex="1">
                    <mxGeometry x="500" y="1220" width="40" height="40" as="geometry"/>
                </mxCell>
                <mxCell id="7fdUrXc_mTo3HhQvjROb-460" value="" style="swimlane;startSize=0;" parent="1" vertex="1">
                    <mxGeometry x="500" y="1220" width="40" height="40" as="geometry"/>
                </mxCell>
                <mxCell id="7fdUrXc_mTo3HhQvjROb-461" value="" style="swimlane;startSize=0;" parent="1" vertex="1">
                    <mxGeometry x="600" y="1220" width="40" height="40" as="geometry"/>
                </mxCell>
                <mxCell id="7fdUrXc_mTo3HhQvjROb-462" value="" style="swimlane;startSize=0;" parent="1" vertex="1">
                    <mxGeometry x="550" y="1220" width="40" height="40" as="geometry"/>
                </mxCell>
                <mxCell id="7fdUrXc_mTo3HhQvjROb-463" value="" style="swimlane;startSize=0;" parent="1" vertex="1">
                    <mxGeometry x="650" y="1220" width="40" height="40" as="geometry"/>
                </mxCell>
                <mxCell id="7fdUrXc_mTo3HhQvjROb-464" value="" style="swimlane;startSize=0;" parent="1" vertex="1">
                    <mxGeometry x="650" y="1220" width="40" height="40" as="geometry"/>
                </mxCell>
                <mxCell id="7fdUrXc_mTo3HhQvjROb-465" value="" style="swimlane;startSize=0;" parent="1" vertex="1">
                    <mxGeometry x="750" y="1220" width="40" height="40" as="geometry"/>
                </mxCell>
                <mxCell id="7fdUrXc_mTo3HhQvjROb-466" value="" style="swimlane;startSize=0;" parent="1" vertex="1">
                    <mxGeometry x="700" y="1220" width="40" height="40" as="geometry"/>
                </mxCell>
                <mxCell id="7fdUrXc_mTo3HhQvjROb-467" value="" style="swimlane;startSize=0;" parent="1" vertex="1">
                    <mxGeometry x="800" y="1220" width="40" height="40" as="geometry"/>
                </mxCell>
                <mxCell id="7fdUrXc_mTo3HhQvjROb-468" value="" style="swimlane;startSize=0;" parent="1" vertex="1">
                    <mxGeometry x="500" y="1280" width="40" height="40" as="geometry"/>
                </mxCell>
                <mxCell id="7fdUrXc_mTo3HhQvjROb-469" value="" style="swimlane;startSize=0;" parent="1" vertex="1">
                    <mxGeometry x="500" y="1280" width="40" height="40" as="geometry"/>
                </mxCell>
                <mxCell id="7fdUrXc_mTo3HhQvjROb-470" value="" style="swimlane;startSize=0;" parent="1" vertex="1">
                    <mxGeometry x="600" y="1280" width="40" height="40" as="geometry"/>
                </mxCell>
                <mxCell id="7fdUrXc_mTo3HhQvjROb-471" value="" style="swimlane;startSize=0;" parent="1" vertex="1">
                    <mxGeometry x="550" y="1280" width="40" height="40" as="geometry"/>
                </mxCell>
                <mxCell id="7fdUrXc_mTo3HhQvjROb-472" value="" style="swimlane;startSize=0;" parent="1" vertex="1">
                    <mxGeometry x="500" y="1280" width="40" height="40" as="geometry"/>
                </mxCell>
                <mxCell id="7fdUrXc_mTo3HhQvjROb-473" value="" style="swimlane;startSize=0;" parent="1" vertex="1">
                    <mxGeometry x="500" y="1280" width="40" height="40" as="geometry"/>
                </mxCell>
                <mxCell id="7fdUrXc_mTo3HhQvjROb-474" value="" style="swimlane;startSize=0;" parent="1" vertex="1">
                    <mxGeometry x="600" y="1280" width="40" height="40" as="geometry"/>
                </mxCell>
                <mxCell id="7fdUrXc_mTo3HhQvjROb-475" value="" style="swimlane;startSize=0;" parent="1" vertex="1">
                    <mxGeometry x="550" y="1280" width="40" height="40" as="geometry"/>
                </mxCell>
                <mxCell id="7fdUrXc_mTo3HhQvjROb-476" value="" style="swimlane;startSize=0;" parent="1" vertex="1">
                    <mxGeometry x="650" y="1280" width="40" height="40" as="geometry"/>
                </mxCell>
                <mxCell id="7fdUrXc_mTo3HhQvjROb-477" value="" style="swimlane;startSize=0;" parent="1" vertex="1">
                    <mxGeometry x="650" y="1280" width="40" height="40" as="geometry"/>
                </mxCell>
                <mxCell id="7fdUrXc_mTo3HhQvjROb-478" value="" style="swimlane;startSize=0;" parent="1" vertex="1">
                    <mxGeometry x="750" y="1280" width="40" height="40" as="geometry"/>
                </mxCell>
                <mxCell id="7fdUrXc_mTo3HhQvjROb-479" value="" style="swimlane;startSize=0;" parent="1" vertex="1">
                    <mxGeometry x="700" y="1280" width="40" height="40" as="geometry"/>
                </mxCell>
                <mxCell id="7fdUrXc_mTo3HhQvjROb-480" value="" style="swimlane;startSize=0;" parent="1" vertex="1">
                    <mxGeometry x="500" y="1280" width="40" height="40" as="geometry"/>
                </mxCell>
                <mxCell id="7fdUrXc_mTo3HhQvjROb-481" value="" style="swimlane;startSize=0;" parent="1" vertex="1">
                    <mxGeometry x="500" y="1280" width="40" height="40" as="geometry"/>
                </mxCell>
                <mxCell id="7fdUrXc_mTo3HhQvjROb-482" value="" style="swimlane;startSize=0;" parent="1" vertex="1">
                    <mxGeometry x="600" y="1280" width="40" height="40" as="geometry"/>
                </mxCell>
                <mxCell id="7fdUrXc_mTo3HhQvjROb-483" value="" style="swimlane;startSize=0;" parent="1" vertex="1">
                    <mxGeometry x="550" y="1280" width="40" height="40" as="geometry"/>
                </mxCell>
                <mxCell id="7fdUrXc_mTo3HhQvjROb-484" value="" style="swimlane;startSize=0;" parent="1" vertex="1">
                    <mxGeometry x="500" y="1280" width="40" height="40" as="geometry"/>
                </mxCell>
                <mxCell id="7fdUrXc_mTo3HhQvjROb-485" value="" style="swimlane;startSize=0;" parent="1" vertex="1">
                    <mxGeometry x="500" y="1280" width="40" height="40" as="geometry"/>
                </mxCell>
                <mxCell id="7fdUrXc_mTo3HhQvjROb-486" value="" style="swimlane;startSize=0;" parent="1" vertex="1">
                    <mxGeometry x="600" y="1280" width="40" height="40" as="geometry"/>
                </mxCell>
                <mxCell id="7fdUrXc_mTo3HhQvjROb-487" value="" style="swimlane;startSize=0;" parent="1" vertex="1">
                    <mxGeometry x="550" y="1280" width="40" height="40" as="geometry"/>
                </mxCell>
                <mxCell id="7fdUrXc_mTo3HhQvjROb-488" value="" style="swimlane;startSize=0;" parent="1" vertex="1">
                    <mxGeometry x="650" y="1280" width="40" height="40" as="geometry"/>
                </mxCell>
                <mxCell id="7fdUrXc_mTo3HhQvjROb-489" value="" style="swimlane;startSize=0;" parent="1" vertex="1">
                    <mxGeometry x="650" y="1280" width="40" height="40" as="geometry"/>
                </mxCell>
                <mxCell id="7fdUrXc_mTo3HhQvjROb-490" value="" style="swimlane;startSize=0;" parent="1" vertex="1">
                    <mxGeometry x="750" y="1280" width="40" height="40" as="geometry"/>
                </mxCell>
                <mxCell id="7fdUrXc_mTo3HhQvjROb-491" value="" style="swimlane;startSize=0;" parent="1" vertex="1">
                    <mxGeometry x="700" y="1280" width="40" height="40" as="geometry"/>
                </mxCell>
                <mxCell id="7fdUrXc_mTo3HhQvjROb-492" value="" style="swimlane;startSize=0;" parent="1" vertex="1">
                    <mxGeometry x="800" y="1280" width="40" height="40" as="geometry"/>
                </mxCell>
                <mxCell id="7fdUrXc_mTo3HhQvjROb-493" value="" style="swimlane;startSize=0;" parent="1" vertex="1">
                    <mxGeometry x="500" y="1340" width="40" height="40" as="geometry"/>
                </mxCell>
                <mxCell id="7fdUrXc_mTo3HhQvjROb-494" value="" style="swimlane;startSize=0;" parent="1" vertex="1">
                    <mxGeometry x="500" y="1340" width="40" height="40" as="geometry"/>
                </mxCell>
                <mxCell id="7fdUrXc_mTo3HhQvjROb-495" value="" style="swimlane;startSize=0;" parent="1" vertex="1">
                    <mxGeometry x="600" y="1340" width="40" height="40" as="geometry"/>
                </mxCell>
                <mxCell id="7fdUrXc_mTo3HhQvjROb-496" value="" style="swimlane;startSize=0;" parent="1" vertex="1">
                    <mxGeometry x="550" y="1340" width="40" height="40" as="geometry"/>
                </mxCell>
                <mxCell id="7fdUrXc_mTo3HhQvjROb-497" value="" style="swimlane;startSize=0;" parent="1" vertex="1">
                    <mxGeometry x="500" y="1340" width="40" height="40" as="geometry"/>
                </mxCell>
                <mxCell id="7fdUrXc_mTo3HhQvjROb-498" value="" style="swimlane;startSize=0;" parent="1" vertex="1">
                    <mxGeometry x="500" y="1340" width="40" height="40" as="geometry"/>
                </mxCell>
                <mxCell id="7fdUrXc_mTo3HhQvjROb-499" value="" style="swimlane;startSize=0;" parent="1" vertex="1">
                    <mxGeometry x="600" y="1340" width="40" height="40" as="geometry"/>
                </mxCell>
                <mxCell id="7fdUrXc_mTo3HhQvjROb-500" value="" style="swimlane;startSize=0;" parent="1" vertex="1">
                    <mxGeometry x="550" y="1340" width="40" height="40" as="geometry"/>
                </mxCell>
                <mxCell id="7fdUrXc_mTo3HhQvjROb-501" value="" style="swimlane;startSize=0;" parent="1" vertex="1">
                    <mxGeometry x="650" y="1340" width="40" height="40" as="geometry"/>
                </mxCell>
                <mxCell id="7fdUrXc_mTo3HhQvjROb-502" value="" style="swimlane;startSize=0;" parent="1" vertex="1">
                    <mxGeometry x="650" y="1340" width="40" height="40" as="geometry"/>
                </mxCell>
                <mxCell id="7fdUrXc_mTo3HhQvjROb-503" value="" style="swimlane;startSize=0;" parent="1" vertex="1">
                    <mxGeometry x="750" y="1340" width="40" height="40" as="geometry"/>
                </mxCell>
                <mxCell id="7fdUrXc_mTo3HhQvjROb-504" value="" style="swimlane;startSize=0;" parent="1" vertex="1">
                    <mxGeometry x="700" y="1340" width="40" height="40" as="geometry"/>
                </mxCell>
                <mxCell id="7fdUrXc_mTo3HhQvjROb-505" value="" style="swimlane;startSize=0;" parent="1" vertex="1">
                    <mxGeometry x="500" y="1340" width="40" height="40" as="geometry"/>
                </mxCell>
                <mxCell id="7fdUrXc_mTo3HhQvjROb-506" value="" style="swimlane;startSize=0;" parent="1" vertex="1">
                    <mxGeometry x="500" y="1340" width="40" height="40" as="geometry"/>
                </mxCell>
                <mxCell id="7fdUrXc_mTo3HhQvjROb-507" value="" style="swimlane;startSize=0;" parent="1" vertex="1">
                    <mxGeometry x="600" y="1340" width="40" height="40" as="geometry"/>
                </mxCell>
                <mxCell id="7fdUrXc_mTo3HhQvjROb-508" value="" style="swimlane;startSize=0;" parent="1" vertex="1">
                    <mxGeometry x="550" y="1340" width="40" height="40" as="geometry"/>
                </mxCell>
                <mxCell id="7fdUrXc_mTo3HhQvjROb-509" value="" style="swimlane;startSize=0;" parent="1" vertex="1">
                    <mxGeometry x="500" y="1340" width="40" height="40" as="geometry"/>
                </mxCell>
                <mxCell id="7fdUrXc_mTo3HhQvjROb-510" value="" style="swimlane;startSize=0;" parent="1" vertex="1">
                    <mxGeometry x="500" y="1340" width="40" height="40" as="geometry"/>
                </mxCell>
                <mxCell id="7fdUrXc_mTo3HhQvjROb-511" value="" style="swimlane;startSize=0;" parent="1" vertex="1">
                    <mxGeometry x="600" y="1340" width="40" height="40" as="geometry"/>
                </mxCell>
                <mxCell id="7fdUrXc_mTo3HhQvjROb-512" value="" style="swimlane;startSize=0;" parent="1" vertex="1">
                    <mxGeometry x="550" y="1340" width="40" height="40" as="geometry"/>
                </mxCell>
                <mxCell id="7fdUrXc_mTo3HhQvjROb-513" value="" style="swimlane;startSize=0;" parent="1" vertex="1">
                    <mxGeometry x="650" y="1340" width="40" height="40" as="geometry"/>
                </mxCell>
                <mxCell id="7fdUrXc_mTo3HhQvjROb-514" value="" style="swimlane;startSize=0;" parent="1" vertex="1">
                    <mxGeometry x="650" y="1340" width="40" height="40" as="geometry"/>
                </mxCell>
                <mxCell id="7fdUrXc_mTo3HhQvjROb-515" value="" style="swimlane;startSize=0;" parent="1" vertex="1">
                    <mxGeometry x="750" y="1340" width="40" height="40" as="geometry"/>
                </mxCell>
                <mxCell id="7fdUrXc_mTo3HhQvjROb-516" value="" style="swimlane;startSize=0;" parent="1" vertex="1">
                    <mxGeometry x="700" y="1340" width="40" height="40" as="geometry"/>
                </mxCell>
                <mxCell id="7fdUrXc_mTo3HhQvjROb-517" value="" style="swimlane;startSize=0;" parent="1" vertex="1">
                    <mxGeometry x="800" y="1340" width="40" height="40" as="geometry"/>
                </mxCell>
                <mxCell id="7fdUrXc_mTo3HhQvjROb-518" value="" style="swimlane;startSize=0;" parent="1" vertex="1">
                    <mxGeometry x="500" y="1390" width="40" height="40" as="geometry"/>
                </mxCell>
                <mxCell id="7fdUrXc_mTo3HhQvjROb-519" value="" style="swimlane;startSize=0;" parent="1" vertex="1">
                    <mxGeometry x="500" y="1390" width="40" height="40" as="geometry"/>
                </mxCell>
                <mxCell id="7fdUrXc_mTo3HhQvjROb-520" value="" style="swimlane;startSize=0;" parent="1" vertex="1">
                    <mxGeometry x="600" y="1390" width="40" height="40" as="geometry"/>
                </mxCell>
                <mxCell id="7fdUrXc_mTo3HhQvjROb-521" value="" style="swimlane;startSize=0;" parent="1" vertex="1">
                    <mxGeometry x="550" y="1390" width="40" height="40" as="geometry"/>
                </mxCell>
                <mxCell id="7fdUrXc_mTo3HhQvjROb-522" value="" style="swimlane;startSize=0;" parent="1" vertex="1">
                    <mxGeometry x="500" y="1390" width="40" height="40" as="geometry"/>
                </mxCell>
                <mxCell id="7fdUrXc_mTo3HhQvjROb-523" value="" style="swimlane;startSize=0;" parent="1" vertex="1">
                    <mxGeometry x="500" y="1390" width="40" height="40" as="geometry"/>
                </mxCell>
                <mxCell id="7fdUrXc_mTo3HhQvjROb-524" value="" style="swimlane;startSize=0;" parent="1" vertex="1">
                    <mxGeometry x="600" y="1390" width="40" height="40" as="geometry"/>
                </mxCell>
                <mxCell id="7fdUrXc_mTo3HhQvjROb-525" value="" style="swimlane;startSize=0;" parent="1" vertex="1">
                    <mxGeometry x="550" y="1390" width="40" height="40" as="geometry"/>
                </mxCell>
                <mxCell id="7fdUrXc_mTo3HhQvjROb-526" value="" style="swimlane;startSize=0;" parent="1" vertex="1">
                    <mxGeometry x="650" y="1390" width="40" height="40" as="geometry"/>
                </mxCell>
                <mxCell id="7fdUrXc_mTo3HhQvjROb-527" value="" style="swimlane;startSize=0;" parent="1" vertex="1">
                    <mxGeometry x="650" y="1390" width="40" height="40" as="geometry"/>
                </mxCell>
                <mxCell id="7fdUrXc_mTo3HhQvjROb-528" value="" style="swimlane;startSize=0;" parent="1" vertex="1">
                    <mxGeometry x="750" y="1390" width="40" height="40" as="geometry"/>
                </mxCell>
                <mxCell id="7fdUrXc_mTo3HhQvjROb-529" value="" style="swimlane;startSize=0;" parent="1" vertex="1">
                    <mxGeometry x="700" y="1390" width="40" height="40" as="geometry"/>
                </mxCell>
                <mxCell id="7fdUrXc_mTo3HhQvjROb-530" value="" style="swimlane;startSize=0;" parent="1" vertex="1">
                    <mxGeometry x="500" y="1390" width="40" height="40" as="geometry"/>
                </mxCell>
                <mxCell id="7fdUrXc_mTo3HhQvjROb-531" value="" style="swimlane;startSize=0;" parent="1" vertex="1">
                    <mxGeometry x="500" y="1390" width="40" height="40" as="geometry"/>
                </mxCell>
                <mxCell id="7fdUrXc_mTo3HhQvjROb-532" value="" style="swimlane;startSize=0;" parent="1" vertex="1">
                    <mxGeometry x="600" y="1390" width="40" height="40" as="geometry"/>
                </mxCell>
                <mxCell id="7fdUrXc_mTo3HhQvjROb-533" value="" style="swimlane;startSize=0;" parent="1" vertex="1">
                    <mxGeometry x="550" y="1390" width="40" height="40" as="geometry"/>
                </mxCell>
                <mxCell id="7fdUrXc_mTo3HhQvjROb-534" value="" style="swimlane;startSize=0;" parent="1" vertex="1">
                    <mxGeometry x="500" y="1390" width="40" height="40" as="geometry"/>
                </mxCell>
                <mxCell id="7fdUrXc_mTo3HhQvjROb-535" value="" style="swimlane;startSize=0;" parent="1" vertex="1">
                    <mxGeometry x="500" y="1390" width="50" height="40" as="geometry"/>
                </mxCell>
                <mxCell id="7fdUrXc_mTo3HhQvjROb-536" value="" style="swimlane;startSize=0;" parent="1" vertex="1">
                    <mxGeometry x="600" y="1390" width="40" height="40" as="geometry"/>
                </mxCell>
                <mxCell id="7fdUrXc_mTo3HhQvjROb-537" value="" style="swimlane;startSize=0;" parent="1" vertex="1">
                    <mxGeometry x="550" y="1390" width="40" height="40" as="geometry"/>
                </mxCell>
                <mxCell id="7fdUrXc_mTo3HhQvjROb-538" value="" style="swimlane;startSize=0;" parent="1" vertex="1">
                    <mxGeometry x="650" y="1390" width="40" height="40" as="geometry"/>
                </mxCell>
                <mxCell id="7fdUrXc_mTo3HhQvjROb-539" value="" style="swimlane;startSize=0;" parent="1" vertex="1">
                    <mxGeometry x="650" y="1390" width="40" height="40" as="geometry"/>
                </mxCell>
                <mxCell id="7fdUrXc_mTo3HhQvjROb-540" value="" style="swimlane;startSize=0;" parent="1" vertex="1">
                    <mxGeometry x="750" y="1390" width="40" height="40" as="geometry"/>
                </mxCell>
                <mxCell id="7fdUrXc_mTo3HhQvjROb-541" value="" style="swimlane;startSize=0;" parent="1" vertex="1">
                    <mxGeometry x="700" y="1390" width="40" height="40" as="geometry"/>
                </mxCell>
                <mxCell id="7fdUrXc_mTo3HhQvjROb-542" value="" style="swimlane;startSize=0;" parent="1" vertex="1">
                    <mxGeometry x="800" y="1390" width="40" height="40" as="geometry"/>
                </mxCell>
                <mxCell id="7fdUrXc_mTo3HhQvjROb-543" value="" style="swimlane;startSize=0;" parent="1" vertex="1">
                    <mxGeometry x="500" y="1450" width="40" height="40" as="geometry"/>
                </mxCell>
                <mxCell id="7fdUrXc_mTo3HhQvjROb-544" value="" style="swimlane;startSize=0;" parent="1" vertex="1">
                    <mxGeometry x="500" y="1450" width="40" height="40" as="geometry"/>
                </mxCell>
                <mxCell id="7fdUrXc_mTo3HhQvjROb-545" value="" style="swimlane;startSize=0;" parent="1" vertex="1">
                    <mxGeometry x="600" y="1450" width="40" height="40" as="geometry"/>
                </mxCell>
                <mxCell id="7fdUrXc_mTo3HhQvjROb-546" value="" style="swimlane;startSize=0;" parent="1" vertex="1">
                    <mxGeometry x="550" y="1450" width="40" height="40" as="geometry"/>
                </mxCell>
                <mxCell id="7fdUrXc_mTo3HhQvjROb-547" value="" style="swimlane;startSize=0;" parent="1" vertex="1">
                    <mxGeometry x="500" y="1450" width="40" height="40" as="geometry"/>
                </mxCell>
                <mxCell id="7fdUrXc_mTo3HhQvjROb-548" value="" style="swimlane;startSize=0;" parent="1" vertex="1">
                    <mxGeometry x="500" y="1450" width="40" height="40" as="geometry"/>
                </mxCell>
                <mxCell id="7fdUrXc_mTo3HhQvjROb-549" value="" style="swimlane;startSize=0;" parent="1" vertex="1">
                    <mxGeometry x="600" y="1450" width="40" height="40" as="geometry"/>
                </mxCell>
                <mxCell id="7fdUrXc_mTo3HhQvjROb-550" value="" style="swimlane;startSize=0;" parent="1" vertex="1">
                    <mxGeometry x="550" y="1450" width="40" height="40" as="geometry"/>
                </mxCell>
                <mxCell id="7fdUrXc_mTo3HhQvjROb-551" value="" style="swimlane;startSize=0;" parent="1" vertex="1">
                    <mxGeometry x="650" y="1450" width="40" height="40" as="geometry"/>
                </mxCell>
                <mxCell id="7fdUrXc_mTo3HhQvjROb-552" value="" style="swimlane;startSize=0;" parent="1" vertex="1">
                    <mxGeometry x="650" y="1450" width="40" height="40" as="geometry"/>
                </mxCell>
                <mxCell id="7fdUrXc_mTo3HhQvjROb-553" value="" style="swimlane;startSize=0;" parent="1" vertex="1">
                    <mxGeometry x="750" y="1450" width="40" height="40" as="geometry"/>
                </mxCell>
                <mxCell id="7fdUrXc_mTo3HhQvjROb-554" value="" style="swimlane;startSize=0;" parent="1" vertex="1">
                    <mxGeometry x="700" y="1450" width="40" height="40" as="geometry"/>
                </mxCell>
                <mxCell id="7fdUrXc_mTo3HhQvjROb-555" value="" style="swimlane;startSize=0;" parent="1" vertex="1">
                    <mxGeometry x="500" y="1450" width="40" height="40" as="geometry"/>
                </mxCell>
                <mxCell id="7fdUrXc_mTo3HhQvjROb-556" value="" style="swimlane;startSize=0;" parent="1" vertex="1">
                    <mxGeometry x="500" y="1450" width="40" height="40" as="geometry"/>
                </mxCell>
                <mxCell id="7fdUrXc_mTo3HhQvjROb-557" value="" style="swimlane;startSize=0;" parent="1" vertex="1">
                    <mxGeometry x="600" y="1450" width="40" height="40" as="geometry"/>
                </mxCell>
                <mxCell id="7fdUrXc_mTo3HhQvjROb-558" value="" style="swimlane;startSize=0;" parent="1" vertex="1">
                    <mxGeometry x="550" y="1450" width="40" height="40" as="geometry"/>
                </mxCell>
                <mxCell id="7fdUrXc_mTo3HhQvjROb-559" value="" style="swimlane;startSize=0;" parent="1" vertex="1">
                    <mxGeometry x="500" y="1450" width="40" height="40" as="geometry"/>
                </mxCell>
                <mxCell id="7fdUrXc_mTo3HhQvjROb-560" value="" style="swimlane;startSize=0;" parent="1" vertex="1">
                    <mxGeometry x="500" y="1450" width="40" height="40" as="geometry"/>
                </mxCell>
                <mxCell id="7fdUrXc_mTo3HhQvjROb-561" value="" style="swimlane;startSize=0;" parent="1" vertex="1">
                    <mxGeometry x="600" y="1450" width="40" height="40" as="geometry"/>
                </mxCell>
                <mxCell id="7fdUrXc_mTo3HhQvjROb-562" value="" style="swimlane;startSize=0;" parent="1" vertex="1">
                    <mxGeometry x="550" y="1450" width="40" height="40" as="geometry"/>
                </mxCell>
                <mxCell id="7fdUrXc_mTo3HhQvjROb-563" value="" style="swimlane;startSize=0;" parent="1" vertex="1">
                    <mxGeometry x="650" y="1450" width="40" height="40" as="geometry"/>
                </mxCell>
                <mxCell id="7fdUrXc_mTo3HhQvjROb-564" value="" style="swimlane;startSize=0;" parent="1" vertex="1">
                    <mxGeometry x="650" y="1450" width="40" height="40" as="geometry"/>
                </mxCell>
                <mxCell id="7fdUrXc_mTo3HhQvjROb-565" value="" style="swimlane;startSize=0;" parent="1" vertex="1">
                    <mxGeometry x="750" y="1450" width="40" height="40" as="geometry"/>
                </mxCell>
                <mxCell id="7fdUrXc_mTo3HhQvjROb-566" value="" style="swimlane;startSize=0;" parent="1" vertex="1">
                    <mxGeometry x="700" y="1450" width="40" height="40" as="geometry"/>
                </mxCell>
                <mxCell id="7fdUrXc_mTo3HhQvjROb-567" value="" style="swimlane;startSize=0;" parent="1" vertex="1">
                    <mxGeometry x="800" y="1450" width="40" height="40" as="geometry"/>
                </mxCell>
                <mxCell id="7fdUrXc_mTo3HhQvjROb-568" value="" style="swimlane;startSize=0;" parent="1" vertex="1">
                    <mxGeometry x="500" y="1510" width="40" height="40" as="geometry"/>
                </mxCell>
                <mxCell id="7fdUrXc_mTo3HhQvjROb-569" value="" style="swimlane;startSize=0;" parent="1" vertex="1">
                    <mxGeometry x="500" y="1510" width="40" height="40" as="geometry"/>
                </mxCell>
                <mxCell id="7fdUrXc_mTo3HhQvjROb-570" value="" style="swimlane;startSize=0;" parent="1" vertex="1">
                    <mxGeometry x="600" y="1510" width="40" height="40" as="geometry"/>
                </mxCell>
                <mxCell id="7fdUrXc_mTo3HhQvjROb-571" value="" style="swimlane;startSize=0;" parent="1" vertex="1">
                    <mxGeometry x="550" y="1510" width="40" height="40" as="geometry"/>
                </mxCell>
                <mxCell id="7fdUrXc_mTo3HhQvjROb-572" value="" style="swimlane;startSize=0;" parent="1" vertex="1">
                    <mxGeometry x="500" y="1510" width="40" height="40" as="geometry"/>
                </mxCell>
                <mxCell id="7fdUrXc_mTo3HhQvjROb-573" value="" style="swimlane;startSize=0;" parent="1" vertex="1">
                    <mxGeometry x="500" y="1510" width="40" height="40" as="geometry"/>
                </mxCell>
                <mxCell id="7fdUrXc_mTo3HhQvjROb-574" value="" style="swimlane;startSize=0;" parent="1" vertex="1">
                    <mxGeometry x="600" y="1510" width="40" height="40" as="geometry"/>
                </mxCell>
                <mxCell id="7fdUrXc_mTo3HhQvjROb-575" value="" style="swimlane;startSize=0;" parent="1" vertex="1">
                    <mxGeometry x="550" y="1510" width="40" height="40" as="geometry"/>
                </mxCell>
                <mxCell id="7fdUrXc_mTo3HhQvjROb-576" value="" style="swimlane;startSize=0;" parent="1" vertex="1">
                    <mxGeometry x="650" y="1510" width="40" height="40" as="geometry"/>
                </mxCell>
                <mxCell id="7fdUrXc_mTo3HhQvjROb-577" value="" style="swimlane;startSize=0;" parent="1" vertex="1">
                    <mxGeometry x="650" y="1510" width="40" height="40" as="geometry"/>
                </mxCell>
                <mxCell id="7fdUrXc_mTo3HhQvjROb-578" value="" style="swimlane;startSize=0;" parent="1" vertex="1">
                    <mxGeometry x="750" y="1510" width="40" height="40" as="geometry"/>
                </mxCell>
                <mxCell id="7fdUrXc_mTo3HhQvjROb-579" value="" style="swimlane;startSize=0;" parent="1" vertex="1">
                    <mxGeometry x="700" y="1510" width="40" height="40" as="geometry"/>
                </mxCell>
                <mxCell id="7fdUrXc_mTo3HhQvjROb-580" value="" style="swimlane;startSize=0;" parent="1" vertex="1">
                    <mxGeometry x="500" y="1510" width="40" height="40" as="geometry"/>
                </mxCell>
                <mxCell id="7fdUrXc_mTo3HhQvjROb-581" value="" style="swimlane;startSize=0;" parent="1" vertex="1">
                    <mxGeometry x="500" y="1510" width="40" height="40" as="geometry"/>
                </mxCell>
                <mxCell id="7fdUrXc_mTo3HhQvjROb-582" value="" style="swimlane;startSize=0;" parent="1" vertex="1">
                    <mxGeometry x="600" y="1510" width="40" height="40" as="geometry"/>
                </mxCell>
                <mxCell id="7fdUrXc_mTo3HhQvjROb-583" value="" style="swimlane;startSize=0;" parent="1" vertex="1">
                    <mxGeometry x="550" y="1510" width="40" height="40" as="geometry"/>
                </mxCell>
                <mxCell id="7fdUrXc_mTo3HhQvjROb-584" value="" style="swimlane;startSize=0;" parent="1" vertex="1">
                    <mxGeometry x="500" y="1510" width="40" height="40" as="geometry"/>
                </mxCell>
                <mxCell id="7fdUrXc_mTo3HhQvjROb-585" value="" style="swimlane;startSize=0;" parent="1" vertex="1">
                    <mxGeometry x="500" y="1510" width="40" height="40" as="geometry"/>
                </mxCell>
                <mxCell id="7fdUrXc_mTo3HhQvjROb-586" value="" style="swimlane;startSize=0;" parent="1" vertex="1">
                    <mxGeometry x="600" y="1510" width="40" height="40" as="geometry"/>
                </mxCell>
                <mxCell id="7fdUrXc_mTo3HhQvjROb-587" value="" style="swimlane;startSize=0;" parent="1" vertex="1">
                    <mxGeometry x="550" y="1510" width="40" height="40" as="geometry"/>
                </mxCell>
                <mxCell id="7fdUrXc_mTo3HhQvjROb-588" value="" style="swimlane;startSize=0;" parent="1" vertex="1">
                    <mxGeometry x="650" y="1510" width="40" height="40" as="geometry"/>
                </mxCell>
                <mxCell id="7fdUrXc_mTo3HhQvjROb-589" value="" style="swimlane;startSize=0;" parent="1" vertex="1">
                    <mxGeometry x="650" y="1510" width="40" height="40" as="geometry"/>
                </mxCell>
                <mxCell id="7fdUrXc_mTo3HhQvjROb-590" value="" style="swimlane;startSize=0;" parent="1" vertex="1">
                    <mxGeometry x="750" y="1510" width="40" height="40" as="geometry"/>
                </mxCell>
                <mxCell id="7fdUrXc_mTo3HhQvjROb-591" value="" style="swimlane;startSize=0;" parent="1" vertex="1">
                    <mxGeometry x="700" y="1510" width="40" height="40" as="geometry"/>
                </mxCell>
                <mxCell id="7fdUrXc_mTo3HhQvjROb-592" value="" style="swimlane;startSize=0;" parent="1" vertex="1">
                    <mxGeometry x="800" y="1510" width="40" height="40" as="geometry"/>
                </mxCell>
                <mxCell id="7fdUrXc_mTo3HhQvjROb-593" value="" style="swimlane;startSize=0;" parent="1" vertex="1">
                    <mxGeometry x="500" y="1570" width="40" height="40" as="geometry"/>
                </mxCell>
                <mxCell id="7fdUrXc_mTo3HhQvjROb-594" value="" style="swimlane;startSize=0;" parent="1" vertex="1">
                    <mxGeometry x="500" y="1570" width="40" height="40" as="geometry"/>
                </mxCell>
                <mxCell id="7fdUrXc_mTo3HhQvjROb-595" value="" style="swimlane;startSize=0;" parent="1" vertex="1">
                    <mxGeometry x="600" y="1570" width="40" height="40" as="geometry"/>
                </mxCell>
                <mxCell id="7fdUrXc_mTo3HhQvjROb-596" value="" style="swimlane;startSize=0;" parent="1" vertex="1">
                    <mxGeometry x="550" y="1570" width="40" height="40" as="geometry"/>
                </mxCell>
                <mxCell id="7fdUrXc_mTo3HhQvjROb-597" value="" style="swimlane;startSize=0;" parent="1" vertex="1">
                    <mxGeometry x="500" y="1570" width="40" height="40" as="geometry"/>
                </mxCell>
                <mxCell id="7fdUrXc_mTo3HhQvjROb-598" value="" style="swimlane;startSize=0;" parent="1" vertex="1">
                    <mxGeometry x="500" y="1570" width="40" height="40" as="geometry"/>
                </mxCell>
                <mxCell id="7fdUrXc_mTo3HhQvjROb-599" value="" style="swimlane;startSize=0;" parent="1" vertex="1">
                    <mxGeometry x="600" y="1570" width="40" height="40" as="geometry"/>
                </mxCell>
                <mxCell id="7fdUrXc_mTo3HhQvjROb-600" value="" style="swimlane;startSize=0;" parent="1" vertex="1">
                    <mxGeometry x="550" y="1570" width="40" height="40" as="geometry"/>
                </mxCell>
                <mxCell id="7fdUrXc_mTo3HhQvjROb-601" value="" style="swimlane;startSize=0;" parent="1" vertex="1">
                    <mxGeometry x="650" y="1570" width="40" height="40" as="geometry"/>
                </mxCell>
                <mxCell id="7fdUrXc_mTo3HhQvjROb-602" value="" style="swimlane;startSize=0;" parent="1" vertex="1">
                    <mxGeometry x="650" y="1570" width="40" height="40" as="geometry"/>
                </mxCell>
                <mxCell id="7fdUrXc_mTo3HhQvjROb-603" value="" style="swimlane;startSize=0;" parent="1" vertex="1">
                    <mxGeometry x="750" y="1570" width="40" height="40" as="geometry"/>
                </mxCell>
                <mxCell id="7fdUrXc_mTo3HhQvjROb-604" value="" style="swimlane;startSize=0;" parent="1" vertex="1">
                    <mxGeometry x="700" y="1570" width="40" height="40" as="geometry"/>
                </mxCell>
                <mxCell id="7fdUrXc_mTo3HhQvjROb-605" value="" style="swimlane;startSize=0;" parent="1" vertex="1">
                    <mxGeometry x="500" y="1570" width="40" height="40" as="geometry"/>
                </mxCell>
                <mxCell id="7fdUrXc_mTo3HhQvjROb-606" value="" style="swimlane;startSize=0;" parent="1" vertex="1">
                    <mxGeometry x="500" y="1570" width="40" height="40" as="geometry"/>
                </mxCell>
                <mxCell id="7fdUrXc_mTo3HhQvjROb-607" value="" style="swimlane;startSize=0;" parent="1" vertex="1">
                    <mxGeometry x="600" y="1570" width="40" height="40" as="geometry"/>
                </mxCell>
                <mxCell id="7fdUrXc_mTo3HhQvjROb-608" value="" style="swimlane;startSize=0;" parent="1" vertex="1">
                    <mxGeometry x="550" y="1570" width="40" height="40" as="geometry"/>
                </mxCell>
                <mxCell id="7fdUrXc_mTo3HhQvjROb-609" value="" style="swimlane;startSize=0;" parent="1" vertex="1">
                    <mxGeometry x="500" y="1570" width="40" height="40" as="geometry"/>
                </mxCell>
                <mxCell id="7fdUrXc_mTo3HhQvjROb-610" value="" style="swimlane;startSize=0;" parent="1" vertex="1">
                    <mxGeometry x="500" y="1570" width="40" height="40" as="geometry"/>
                </mxCell>
                <mxCell id="7fdUrXc_mTo3HhQvjROb-611" value="" style="swimlane;startSize=0;" parent="1" vertex="1">
                    <mxGeometry x="600" y="1570" width="40" height="40" as="geometry"/>
                </mxCell>
                <mxCell id="7fdUrXc_mTo3HhQvjROb-612" value="" style="swimlane;startSize=0;" parent="1" vertex="1">
                    <mxGeometry x="550" y="1570" width="40" height="40" as="geometry"/>
                </mxCell>
                <mxCell id="7fdUrXc_mTo3HhQvjROb-613" value="" style="swimlane;startSize=0;" parent="1" vertex="1">
                    <mxGeometry x="650" y="1570" width="40" height="40" as="geometry"/>
                </mxCell>
                <mxCell id="7fdUrXc_mTo3HhQvjROb-614" value="" style="swimlane;startSize=0;" parent="1" vertex="1">
                    <mxGeometry x="650" y="1570" width="40" height="40" as="geometry"/>
                </mxCell>
                <mxCell id="7fdUrXc_mTo3HhQvjROb-615" value="" style="swimlane;startSize=0;" parent="1" vertex="1">
                    <mxGeometry x="750" y="1570" width="40" height="40" as="geometry"/>
                </mxCell>
                <mxCell id="7fdUrXc_mTo3HhQvjROb-616" value="" style="swimlane;startSize=0;" parent="1" vertex="1">
                    <mxGeometry x="700" y="1570" width="40" height="40" as="geometry"/>
                </mxCell>
                <mxCell id="7fdUrXc_mTo3HhQvjROb-617" value="" style="swimlane;startSize=0;" parent="1" vertex="1">
                    <mxGeometry x="800" y="1570" width="40" height="40" as="geometry"/>
                </mxCell>
                <mxCell id="7fdUrXc_mTo3HhQvjROb-618" value="" style="rounded=0;whiteSpace=wrap;html=1;" parent="1" vertex="1">
                    <mxGeometry x="330" y="1660" width="700" height="150" as="geometry"/>
                </mxCell>
                <mxCell id="7fdUrXc_mTo3HhQvjROb-619" value="&lt;font style=&quot;font-size: 16px;&quot;&gt;Squares to light up as player guesses.&amp;nbsp;&lt;br&gt;&lt;br&gt;Green for correct letter, correct position&lt;/font&gt;&lt;div&gt;&lt;font style=&quot;font-size: 16px;&quot;&gt;&lt;br&gt;&lt;/font&gt;&lt;/div&gt;&lt;div&gt;&lt;font style=&quot;font-size: 16px;&quot;&gt;Yellow for correct letter, wrong position&lt;/font&gt;&lt;/div&gt;&lt;div&gt;&lt;font style=&quot;font-size: 16px;&quot;&gt;&lt;br&gt;&lt;/font&gt;&lt;/div&gt;&lt;div&gt;&lt;font style=&quot;font-size: 16px;&quot;&gt;Grey for letters not in the word&lt;/font&gt;&lt;/div&gt;" style="text;html=1;align=center;verticalAlign=middle;whiteSpace=wrap;rounded=0;" parent="1" vertex="1">
                    <mxGeometry x="270" y="1230" width="190" height="300" as="geometry"/>
                </mxCell>
                <mxCell id="7fdUrXc_mTo3HhQvjROb-622" value="&lt;h1 style=&quot;margin-top: 0px;&quot;&gt;Keyboard showing used letters&lt;/h1&gt;" style="text;html=1;whiteSpace=wrap;overflow=hidden;rounded=0;" parent="1" vertex="1">
                    <mxGeometry x="500" y="1707.5" width="380" height="55" as="geometry"/>
                </mxCell>
                <mxCell id="7fdUrXc_mTo3HhQvjROb-630" value="" style="shape=flexArrow;endArrow=classic;html=1;rounded=0;" parent="1" edge="1">
                    <mxGeometry width="50" height="50" relative="1" as="geometry">
                        <mxPoint x="1080" y="1430" as="sourcePoint"/>
                        <mxPoint x="1220" y="1430" as="targetPoint"/>
                    </mxGeometry>
                </mxCell>
                <mxCell id="7fdUrXc_mTo3HhQvjROb-632" value="On Win" style="text;html=1;align=center;verticalAlign=middle;whiteSpace=wrap;rounded=0;" parent="1" vertex="1">
                    <mxGeometry x="1110" y="1380" width="60" height="30" as="geometry"/>
                </mxCell>
                <mxCell id="7fdUrXc_mTo3HhQvjROb-634" value="" style="rounded=0;whiteSpace=wrap;html=1;" parent="1" vertex="1">
                    <mxGeometry x="1310" y="1160" width="440" height="630" as="geometry"/>
                </mxCell>
                <mxCell id="7fdUrXc_mTo3HhQvjROb-635" value="&lt;h1 style=&quot;margin-top: 0px;&quot;&gt;You Win! Popup&lt;/h1&gt;&lt;p&gt;Word Score&lt;/p&gt;&lt;p&gt;&lt;br&gt;&lt;/p&gt;&lt;p&gt;Cumulative Score&lt;/p&gt;&lt;p&gt;&lt;br&gt;&lt;/p&gt;&lt;p&gt;(Stretch Goal) - general Number of guesses for past games&lt;/p&gt;" style="text;html=1;whiteSpace=wrap;overflow=hidden;rounded=0;align=center;" parent="1" vertex="1">
                    <mxGeometry x="1380" y="1280" width="330" height="300" as="geometry"/>
                </mxCell>
                <mxCell id="7fdUrXc_mTo3HhQvjROb-640" value="" style="rounded=0;whiteSpace=wrap;html=1;" parent="1" vertex="1">
                    <mxGeometry x="1370" y="1600" width="330" height="60" as="geometry"/>
                </mxCell>
                <mxCell id="7fdUrXc_mTo3HhQvjROb-641" value="&lt;font style=&quot;font-size: 20px;&quot;&gt;Play Again Button&lt;/font&gt;" style="text;html=1;align=center;verticalAlign=middle;whiteSpace=wrap;rounded=0;" parent="1" vertex="1">
                    <mxGeometry x="1415" y="1610" width="230" height="40" as="geometry"/>
                </mxCell>
                <mxCell id="7fdUrXc_mTo3HhQvjROb-642" value="" style="shape=flexArrow;endArrow=classic;html=1;rounded=0;" parent="1" edge="1">
                    <mxGeometry width="50" height="50" relative="1" as="geometry">
                        <mxPoint x="1090" y="1920" as="sourcePoint"/>
                        <mxPoint x="1180" y="1957.5" as="targetPoint"/>
                    </mxGeometry>
                </mxCell>
                <mxCell id="7fdUrXc_mTo3HhQvjROb-644" value="On Lose" style="text;html=1;align=center;verticalAlign=middle;whiteSpace=wrap;rounded=0;rotation=25;" parent="1" vertex="1">
                    <mxGeometry x="1085" y="1900" width="110" height="30" as="geometry"/>
                </mxCell>
                <mxCell id="2" value="" style="rounded=0;whiteSpace=wrap;html=1;" vertex="1" parent="1">
                    <mxGeometry x="1310" y="1890" width="440" height="630" as="geometry"/>
                </mxCell>
                <mxCell id="7fdUrXc_mTo3HhQvjROb-645" value="" style="rounded=0;whiteSpace=wrap;html=1;" vertex="1" parent="1">
                    <mxGeometry x="880" y="1160" width="150" height="60" as="geometry"/>
                </mxCell>
                <mxCell id="3" value="&lt;h1 style=&quot;margin-top: 0px;&quot;&gt;You Lose Popup&lt;/h1&gt;&lt;p&gt;Word Score&lt;/p&gt;&lt;p&gt;&lt;br&gt;&lt;/p&gt;&lt;p&gt;Cumulative Score&lt;/p&gt;&lt;p&gt;&lt;br&gt;&lt;/p&gt;&lt;p&gt;(Stretch Goal) - general Number of guesses for past games&lt;/p&gt;" style="text;html=1;whiteSpace=wrap;overflow=hidden;rounded=0;align=center;" vertex="1" parent="1">
                    <mxGeometry x="1380" y="2010" width="330" height="300" as="geometry"/>
                </mxCell>
                <mxCell id="7fdUrXc_mTo3HhQvjROb-646" value="&lt;font style=&quot;font-size: 20px;&quot;&gt;Score button&lt;/font&gt;" style="text;html=1;align=center;verticalAlign=middle;whiteSpace=wrap;rounded=0;" vertex="1" parent="1">
                    <mxGeometry x="895" y="1170" width="120" height="30" as="geometry"/>
                </mxCell>
                <mxCell id="4" value="" style="rounded=0;whiteSpace=wrap;html=1;" vertex="1" parent="1">
                    <mxGeometry x="1370" y="2330" width="330" height="60" as="geometry"/>
                </mxCell>
                <mxCell id="5" value="&lt;span style=&quot;font-size: 20px;&quot;&gt;Play Again&lt;/span&gt;" style="text;html=1;align=center;verticalAlign=middle;whiteSpace=wrap;rounded=0;" vertex="1" parent="1">
                    <mxGeometry x="1415" y="2340" width="230" height="40" as="geometry"/>
                </mxCell>
                <mxCell id="6" value="" style="shape=flexArrow;endArrow=classic;html=1;rounded=0;" edge="1" parent="1">
                    <mxGeometry width="50" height="50" relative="1" as="geometry">
                        <mxPoint x="1075" y="1030" as="sourcePoint"/>
                        <mxPoint x="1205" y="970" as="targetPoint"/>
                    </mxGeometry>
                </mxCell>
                <mxCell id="7" value="Score Popup" style="text;html=1;strokeColor=none;fillColor=none;align=center;verticalAlign=middle;whiteSpace=wrap;rounded=0;rotation=-25;" vertex="1" parent="1">
                    <mxGeometry x="1070" y="960" width="90" height="30" as="geometry"/>
                </mxCell>
                <mxCell id="8" value="" style="rounded=0;whiteSpace=wrap;html=1;" vertex="1" parent="1">
                    <mxGeometry x="1310" y="450" width="440" height="630" as="geometry"/>
                </mxCell>
                <mxCell id="9" value="&lt;h1 style=&quot;margin-top: 0px;&quot;&gt;Score Popup&lt;/h1&gt;&lt;p&gt;Word Score&lt;/p&gt;&lt;p&gt;&lt;br&gt;&lt;/p&gt;&lt;p&gt;Cumulative Score&lt;/p&gt;&lt;p&gt;&lt;br&gt;&lt;/p&gt;&lt;p&gt;(Stretch Goal) - general Number of guesses for past games&lt;/p&gt;" style="text;html=1;whiteSpace=wrap;overflow=hidden;rounded=0;align=center;" vertex="1" parent="1">
                    <mxGeometry x="1380" y="570" width="330" height="300" as="geometry"/>
                </mxCell>
            </root>
        </mxGraphModel>
    </diagram>
</mxfile>